<svg id="logo" xmlns="http://www.w3.org/2000/svg" width="58.638" height="32.577" viewBox="0 0 58.638 32.577">
  <path id="Контур_112" data-name="Контур 112" d="M36.773,9.1H5.255L4,6.932l-.5-.866L1.755,3.033l-.377-.654L0,0H31.518l1.373,2.378.377.654,1.75,3.033.5.866Z"/>
  <path id="Контур_113" data-name="Контур 113" d="M92.531,11.212l-.373.635L90.4,14.808l-.5.842-1.252,2.12L87.28,20.1l-.377.635-1.75,2.962-.5.846L83.4,26.654l-1.373,2.323-.377.639L79.9,32.577H58.89l1.75-2.962.377-.635,1.373-2.327,1.252-2.115.5-.846H74.651l1.75-2.962.377-.635,1.373-2.327L79.4,15.654l.5-.846,1.75-2.962.377-.63L80.651,8.885H75.4L74.148,6.769l-.5-.846L71.9,2.962l-.373-.635L70.145,0H85.906L87.28,2.327l.377.635,1.75,2.962.5.846,1.252,2.115Z" transform="translate(-33.892)"/>
  <path id="Контур_114" data-name="Контур 114" d="M51.2,28l-1.75,3.033-.5.862L47.7,34.065,46.32,36.448l-.373.65h-10.5l-1.755,3.033-.5.871-1.252,2.162-1.373,2.383-.377.65-1.75,3.033H17.935l1.75-3.033.373-.65,1.378-2.383L22.687,41l.5-.866,1.75-3.033H14.43l.377-.65,1.373-2.383,1.252-2.17.5-.862L19.685,28Z" transform="translate(-8.178 -16.652)"/>
</svg>
